<?xml version="1.0" encoding="iso-8859-1"?>
<!-- Uploaded to: SVG Repo, www.svgrepo.com, Generator: SVG Repo Mixer Tools -->
<svg fill="currentColor"  width="44" height="44" viewBox="0 0 44 44" version="1.1" id="Layer_1" xmlns="http://www.w3.org/2000/svg" xmlns:xlink="http://www.w3.org/1999/xlink"  xml:space="preserve">
<g>
	<g>
		<path fill="currentColor" class="s0" d="m38.9 9.8l3.6 12-2.5 2.5c-0.3 0.3-0.7 0.5-1.1 0.5-0.5 0-0.9-0.2-1.2-0.5l-0.1-0.1-4.8-8.7-1.3 1.2q0.3 0.4 0.6 0.8c1.4 2.3 2.3 4.9 2.6 7.6q0.2 0.6 0 1.2 0.1 2.1-0.4 4.2c-1.8 7.9-8.7 13.4-16.8 13.4q-1.9 0-3.8-0.4c-4.5-1.1-8.3-3.8-10.8-7.7-2.4-3.9-3.2-8.5-2.2-13 1.6-7.2 7.5-12.4 14.7-13.2q0.1-0.1 0.1-0.1h0.1q0.9-0.1 1.9-0.1 1.9 0 3.8 0.5c2 0.4 3.9 1.2 5.6 2.3l1.2-1.4-8.6-4.7-0.1-0.1c-0.3-0.3-0.5-0.7-0.5-1.2 0-0.4 0.2-0.8 0.5-1.2l2.5-2.4 11.9 3.5 3.3-3.5c0.8-0.8 1.8-1.2 2.9-1.2 0.9 0 1.9 0.4 2.6 1.1 1.4 1.4 1.4 3.9-0.2 5.4zm-29.7 28.8c-0.1-0.4 1.2-2.1 1.2-2.1 0.1-0.2 0-0.7 0-0.9q0-0.4 0-0.6c-0.2-0.4-0.8-1.7-1.1-2-0.6-0.6-0.3-1.6 0.1-2.6q0.1-0.3 0.2-0.6c-0.2-0.3-0.7-0.7-1-0.9q-0.3-0.2-0.6-0.4c-0.4 0.4-1.3 1-2.3 0.3-1.2-0.8-0.9-2.2-0.8-3.2q0-0.1 0-0.3c-0.3-0.3-1.3-0.6-2.3-0.9-0.5 3.6 0.2 7.2 2.2 10.3 1.1 1.7 2.5 3.2 4.1 4.3zm23.3-10q-0.5 0.3-1 0.6c-1.4 0.8-3.2 1.8-3.1 2.7q0 0.7-0.5 1.2c-0.6 0.6-1.6 0.6-2.7 0.6-0.5 0-1.5 0-1.7 0.1-0.5 0.5-1.1 0.7-1.7 0.7-1.4 0-2.6-0.9-3-1.2-0.1 0-0.3 0-0.4 0-0.6-0.1-1.5-0.2-2-1-0.2-0.3-0.4-0.8-0.1-1.5 0.6-1.6 2-1.8 3-1.9q0.4-0.1 0.7-0.1c0.5-0.1 1.1-0.4 1.5-0.6-3-2.1-3.8-5.3-3.9-6.2-0.1-0.3-0.1-0.7-0.1-1.1 0-0.3 0.1-0.9 0-1.3q-0.3 0-0.7-0.1c-0.6 0-1.3-0.1-2.4-0.6-1.9-0.8-1.6-2.4-1.4-3.7q0.1-0.5 0.1-1.1 0.2-1.1 0.5-1.9c-5 1.3-8.9 5.1-10.5 10.2q4.2 1 4 2.9 0 0.4-0.1 0.7c0 0.2 0 0.4 0 0.7 1-0.8 1.8-0.5 2.2 0 0.1 0.1 0.4 0.3 0.7 0.5 1 0.8 2.2 1.6 1.9 2.9-0.1 0.4-0.3 0.8-0.4 1.1-0.1 0.3-0.2 0.6-0.2 0.8 0.5 0.7 1.5 2.5 1.3 3.3q0.1-0.1 0.1-0.2 0 0.2 0 0.4c0 0.9 0.1 1.6-0.3 2.1 0 0.1-0.9 1.5-1.9 2.4q1.7 1 3.8 1.4 1.7 0.4 3.3 0.4c7.1 0 13.1-4.8 14.7-11.7q0.2-0.7 0.3-1.5zm-2.2-9.9q-0.2-0.2-0.4-0.5l-0.2 0.2q-0.3 0.3-0.6 0.5l1.1 4-1.7 1.7c-0.3 0.3-0.7 0.4-1.1 0.4-0.4 0-0.8-0.1-1.1-0.4l-0.1-0.1-2.3-4.5-0.1-0.2-4.5-2.2-0.1-0.1c-0.3-0.3-0.4-0.7-0.4-1.1 0-0.4 0.1-0.8 0.4-1.1l1.7-1.7 3.9 1q0.2-0.3 0.5-0.6l0.1-0.1q-2.1-1.3-4.5-1.8-1.7-0.4-3.4-0.4-0.5 0-1.1 0c-0.5 0.6-1 1.3-1.1 2.6q-0.1 0.7-0.2 1.3c-0.1 0.4-0.2 1-0.1 1.2 0 0 0.1 0 0.3 0.1 0.8 0.4 1.2 0.4 1.7 0.5 0.4 0 0.8 0.1 1.3 0.2 1.6 0.5 1.4 2.4 1.4 3.4q0 0.1 0 0.2v0.3c0 0.2 0.5 3.6 3.7 5.3 0.6 0.3 0.9 0.9 0.8 1.4-0.2 1.4-2.8 2.5-3.7 2.7q-0.5 0.1-0.9 0.1-0.6 0.1-0.8 0.2c0.4 0 0.8 0.1 1.2 0.4 0.6 0.4 1.7 0.9 2.1 0.6 0.8-0.7 2.1-0.7 3.2-0.7 0.3 0 0.6 0 0.9 0 0.2-2 2.3-3.1 4.2-4.2 0.7-0.4 1.9-1 2.2-1.4-0.2-2.5-0.9-5-2.3-7.2zm6.2-9.5l4.5-4.2c0.6-0.7 0.7-1.7 0.1-2.3-0.3-0.3-0.7-0.5-1.1-0.5-0.5 0-0.9 0.2-1.3 0.6l-4.2 4.5-12-3.6-1 1.1 10.1 5.5-4.8 5.2q-0.3 0.4-0.5 0.8l-0.4 0.8-4.3-1.1-0.2 0.2 3.7 1.9 0.6 0.6 1.9 3.7 0.2-0.2-1.2-4.4 0.8-0.3q0.4-0.3 0.8-0.6l5.2-4.8 5.6 10.2 1.1-1z"/>
	</g>
</g>
</svg>