<svg width="44" height="44" viewBox="0 0 44 44" fill="none" xmlns="http://www.w3.org/2000/svg">
<path d="M22 2.32031C19.565 2.32031 17.3462 3.05422 15.7022 4.28742C14.0583 5.52028 12.9766 7.29386 12.9766 9.28125C12.9766 9.98628 13.1309 10.6174 13.4041 11.1697C13.6102 11.6157 13.8933 12.0199 14.2592 12.352C14.3783 12.4562 14.5015 12.5539 14.6282 12.6467C14.9996 12.9352 15.419 13.1744 15.872 13.3609C17.5457 14.0492 19.6794 14.2203 21.9999 14.2203C22.3248 14.2203 22.6453 14.2164 22.9622 14.2087C23.7156 14.1955 24.4635 14.1537 25.1935 14.0615C26.2695 13.9343 27.2608 13.7175 28.1279 13.3608C28.4355 13.2342 28.7279 13.0832 29.0003 12.909C29.1217 12.8418 29.2422 12.7724 29.3605 12.6985C29.8538 12.3397 30.2429 11.8584 30.5217 11.3121C30.7924 10.8158 30.9646 10.2517 31.0105 9.62397C31.0291 9.43723 31.038 9.24945 31.035 9.06194C31.0295 9.06065 31.0239 9.05936 31.0182 9.05781C30.9406 7.16134 29.8798 5.47405 28.2977 4.28742C26.6538 3.05439 24.4349 2.32031 22 2.32031ZM22 3.86719C24.1215 3.86719 26.0277 4.51842 27.3695 5.52492C28.7115 6.53125 29.4766 7.85125 29.4766 9.28125C29.4766 10.7113 28.8515 11.3903 27.5393 11.9302C26.227 12.4701 24.2358 12.6735 22 12.6735C19.7642 12.6735 17.773 12.4701 16.4607 11.9302C15.1485 11.3903 14.5234 10.7113 14.5234 9.28125C14.5234 7.85125 15.2885 6.53125 16.6305 5.52492C17.9723 4.51834 19.8785 3.86719 22 3.86719ZM18.7537 5.39241C18.2262 5.39705 17.6632 5.60871 17.1924 5.97919C16.2304 6.73612 15.9113 7.93512 16.4795 8.65717C17.0478 9.37922 18.2882 9.35069 19.25 8.59375C20.2119 7.83664 20.531 6.63781 19.9627 5.91577C19.695 5.57571 19.2614 5.38794 18.7537 5.39241ZM11.4241 9.4985C10.4463 9.80676 9.53829 10.1551 8.71389 10.5379C5.36663 12.092 3.52344 14.1384 3.52344 16.1562C3.52344 18.1741 5.36663 20.2205 8.71389 21.7746C12.0612 23.3286 16.7813 24.3203 22 24.3203C27.2187 24.3203 31.9387 23.3286 35.2861 21.7746C38.6334 20.2205 40.4766 18.1741 40.4766 16.1562C40.4766 14.1384 38.6334 12.092 35.2861 10.5379C34.4669 10.1576 33.565 9.81114 32.5941 9.50452C32.5084 11.2316 31.7139 12.9149 30.2486 13.9677L30.2295 13.9814L30.2095 13.9941C27.3336 15.8053 23.9079 15.8305 20.8623 15.7345C18.3452 15.6714 15.4153 15.4261 13.2331 13.5104L13.2288 13.5065L13.2245 13.5026C12.0549 12.4445 11.4868 10.9874 11.4241 9.49876V9.4985ZM36.3559 13.5573C37.0153 13.5613 37.6708 13.7816 38.1581 14.2689C38.7579 14.8686 38.9533 15.7233 38.8387 16.526C38.724 17.3287 38.3196 18.1178 37.6719 18.7656C37.0241 19.4134 36.235 19.8176 35.4324 19.9323C34.6297 20.0469 33.7749 19.8515 33.1751 19.2516C32.5753 18.6518 32.38 17.7973 32.4947 16.9946C32.6093 16.1919 33.0135 15.4028 33.6613 14.755C34.3091 14.1071 35.0982 13.703 35.9008 13.5883C36.0514 13.5668 36.2038 13.5562 36.3559 13.5572V13.5573ZM7.47734 13.724C7.62945 13.7232 7.78181 13.7338 7.93237 13.7553C8.73503 13.8701 9.52428 14.2741 10.1721 14.9219C10.8199 15.5697 11.224 16.3588 11.3386 17.1616C11.4532 17.9643 11.2578 18.8189 10.658 19.4186C10.0583 20.0185 9.20391 20.2135 8.40108 20.0989C7.59842 19.9841 6.80909 19.5801 6.16129 18.9323C5.51349 18.2845 5.10941 17.4952 4.99477 16.6925C4.88022 15.8898 5.07555 15.0353 5.6754 14.4355C6.16266 13.9481 6.81811 13.7279 7.47734 13.724ZM36.4194 15.103C36.3267 15.0992 36.227 15.1045 36.1199 15.1198C35.691 15.1809 35.1813 15.4225 34.7552 15.8487C34.3289 16.2748 34.0875 16.7845 34.0261 17.2134C33.9648 17.6422 34.0632 17.9523 34.269 18.1578C34.4746 18.3636 34.7846 18.462 35.2136 18.4008C35.6424 18.3394 36.1518 18.0977 36.578 17.6716C37.0041 17.2453 37.2457 16.736 37.3071 16.3072C37.3683 15.8783 37.2698 15.5681 37.0642 15.3625C36.9099 15.2083 36.6969 15.1143 36.4191 15.1028L36.4194 15.103ZM7.41383 15.2699C7.13608 15.2813 6.92312 15.3752 6.76895 15.5294C6.56322 15.7352 6.46473 16.045 6.52592 16.4739C6.58711 16.9029 6.82902 17.4126 7.25519 17.8387C7.68127 18.265 8.1907 18.5065 8.61962 18.5677C9.04845 18.629 9.35868 18.5306 9.56433 18.3249C9.76998 18.1192 9.86855 17.8093 9.80719 17.3804C9.74583 16.9516 9.50426 16.4418 9.07818 16.0157C8.65193 15.5895 8.14232 15.348 7.71349 15.2867C7.60607 15.2715 7.50638 15.2661 7.41383 15.2701V15.2699ZM22 18.1328C22.9161 18.1328 23.76 18.4052 24.4086 18.8916C25.0574 19.3782 25.5234 20.1205 25.5234 20.9688C25.5234 21.817 25.0573 22.5593 24.4086 23.0459C23.76 23.5323 22.9161 23.8047 22 23.8047C21.0839 23.8047 20.24 23.5323 19.5914 23.0459C18.9426 22.5593 18.4766 21.817 18.4766 20.9688C18.4766 20.1205 18.9427 19.3782 19.5914 18.8916C20.24 18.4052 21.0839 18.1328 22 18.1328ZM22 19.6797C21.3973 19.6797 20.8661 19.8691 20.5196 20.1291C20.173 20.3889 20.0234 20.6779 20.0234 20.9688C20.0234 21.2596 20.173 21.5486 20.5196 21.8084C20.8661 22.0684 21.3973 22.2578 22 22.2578C22.6027 22.2578 23.1339 22.0684 23.4804 21.8084C23.827 21.5486 23.9766 21.2596 23.9766 20.9688C23.9766 20.6779 23.827 20.3889 23.4804 20.1291C23.1339 19.869 22.6027 19.6797 22 19.6797ZM17.2648 25.6006L9.625 41.25H34.375L26.7352 25.6006C25.2169 25.7748 23.6318 25.8672 22 25.8672C20.3682 25.8672 18.7831 25.7748 17.2648 25.6006Z" fill="currentColor"/>
</svg>
